<svg width="19" height="17" viewBox="0 0 19 17" fill="none" xmlns="http://www.w3.org/2000/svg">
<path d="M16.5 10.0275C16.4062 10.3712 16.0938 10.59 15.75 10.59H6.59375L6.8125 11.59H15.1875C15.6562 11.59 16.0312 12.0587 15.9062 12.5275L15.75 13.2775C16.3438 13.5587 16.75 14.1525 16.75 14.84C16.75 15.8087 15.9375 16.59 15 16.59C14.0312 16.59 13.25 15.8087 13.25 14.84C13.25 14.3712 13.4375 13.9337 13.75 13.59H7.21875C7.53125 13.9337 7.75 14.3712 7.75 14.84C7.75 15.8087 6.9375 16.59 6 16.59C5.03125 16.59 4.25 15.8087 4.25 14.84C4.25 14.215 4.59375 13.6525 5.125 13.34L2.90625 2.59H0.75C0.3125 2.59 0 2.2775 0 1.84V1.34C0 0.933746 0.3125 0.589996 0.75 0.589996H3.9375C4.28125 0.589996 4.59375 0.871246 4.6875 1.215L4.96875 2.59H17.2188C17.7188 2.59 18.0625 3.05875 17.9688 3.5275L16.5 10.0275Z" fill="white"/>
</svg>
