<svg width="16" height="13" viewBox="0 0 16 13" fill="none" xmlns="http://www.w3.org/2000/svg">
<path d="M14.5 12.59H1.5C0.65625 12.59 0 11.9337 0 11.09V2.09C0 1.2775 0.65625 0.589996 1.5 0.589996H14.5C15.3125 0.589996 16 1.2775 16 2.09V11.09C16 11.9337 15.3125 12.59 14.5 12.59ZM3.5 2.34C2.53125 2.34 1.75 3.1525 1.75 4.09C1.75 5.05875 2.53125 5.84 3.5 5.84C4.4375 5.84 5.25 5.05875 5.25 4.09C5.25 3.1525 4.4375 2.34 3.5 2.34ZM2 10.59H14V7.09L11.25 4.37125C11.0938 4.215 10.875 4.215 10.7188 4.37125L6.5 8.59L4.75 6.87125C4.59375 6.715 4.375 6.715 4.21875 6.87125L2 9.09V10.59Z" fill="white"/>
</svg>
