<svg width="13" height="17" viewBox="0 0 13 17" fill="none" xmlns="http://www.w3.org/2000/svg">
<path d="M6.23499 16.127C1.67249 9.56445 0.859985 8.87695 0.859985 6.43945C0.859985 3.12695 3.51624 0.439453 6.85999 0.439453C10.1725 0.439453 12.86 3.12695 12.86 6.43945C12.86 8.87695 12.0162 9.56445 7.45374 16.127C7.17249 16.5645 6.51624 16.5645 6.23499 16.127ZM6.85999 8.93945C8.23499 8.93945 9.35999 7.8457 9.35999 6.43945C9.35999 5.06445 8.23499 3.93945 6.85999 3.93945C5.45374 3.93945 4.35999 5.06445 4.35999 6.43945C4.35999 7.8457 5.45374 8.93945 6.85999 8.93945Z" fill="#00FCDB"/>
</svg>
