<svg width="17" height="13" viewBox="0 0 17 13" fill="none" xmlns="http://www.w3.org/2000/svg">
<path d="M16.5475 4.4082C16.6725 4.31445 16.86 4.4082 16.86 4.56445V10.9395C16.86 11.7832 16.1725 12.4395 15.36 12.4395H2.35999C1.51624 12.4395 0.859985 11.7832 0.859985 10.9395V4.56445C0.859985 4.4082 1.01624 4.31445 1.14124 4.4082C1.85999 4.9707 2.76624 5.6582 5.95374 7.9707C6.60999 8.43945 7.73499 9.4707 8.85999 9.4707C9.95374 9.4707 11.11 8.43945 11.735 7.9707C14.9225 5.6582 15.8287 4.9707 16.5475 4.4082ZM8.85999 8.43945C8.10999 8.4707 7.07874 7.5332 6.54749 7.1582C2.39124 4.1582 2.07874 3.87695 1.14124 3.12695C0.953735 3.00195 0.859985 2.7832 0.859985 2.5332V1.93945C0.859985 1.12695 1.51624 0.439453 2.35999 0.439453H15.36C16.1725 0.439453 16.86 1.12695 16.86 1.93945V2.5332C16.86 2.7832 16.735 3.00195 16.5475 3.12695C15.61 3.87695 15.2975 4.1582 11.1412 7.1582C10.61 7.5332 9.57874 8.4707 8.85999 8.43945Z" fill="#00FCDB"/>
</svg>
