<svg width="15" height="17" viewBox="0 0 15 17" fill="none" xmlns="http://www.w3.org/2000/svg">
<path d="M4.89124 16.2832C0.828735 12.252 0.828735 5.6582 4.89124 1.62695C5.07874 1.43945 5.32874 1.4082 5.54749 1.5332L7.57874 2.81445C7.73499 2.9082 7.82874 3.06445 7.82874 3.25195C7.82874 3.31445 7.82874 3.4082 7.79749 3.4707L6.76624 6.00195C6.70374 6.18945 6.51624 6.31445 6.26624 6.31445H6.23499L4.48499 6.1582C3.82874 7.9707 3.82874 9.9707 4.48499 11.752L6.23499 11.5957H6.26624C6.51624 11.5957 6.70374 11.7207 6.76624 11.9082L7.79749 14.4395C7.82874 14.502 7.82874 14.5957 7.82874 14.6582C7.82874 14.8457 7.73499 15.002 7.57874 15.0957L5.54749 16.377C5.45374 16.4395 5.35999 16.4395 5.26624 16.4395C5.10999 16.4395 4.98499 16.4082 4.89124 16.2832ZM9.57874 3.43945C9.92249 4.06445 9.92249 4.8457 9.57874 5.4707C9.45374 5.68945 9.17249 5.7207 8.98499 5.56445L8.79749 5.37695C8.67249 5.25195 8.64124 5.06445 8.73499 4.9082C8.79749 4.7832 8.82874 4.62695 8.82874 4.4707C8.82874 4.2832 8.79749 4.12695 8.73499 4.00195C8.64124 3.8457 8.67249 3.6582 8.79749 3.5332L8.98499 3.3457C9.17249 3.18945 9.45374 3.2207 9.57874 3.43945ZM12.4225 0.595703C14.3287 2.81445 14.3287 6.0957 12.4225 8.31445C12.2975 8.50195 12.0475 8.50195 11.8912 8.3457L11.7037 8.18945C11.5787 8.0332 11.5475 7.81445 11.6725 7.6582C13.235 5.81445 13.235 3.0957 11.6725 1.25195C11.5475 1.0957 11.5787 0.876953 11.7037 0.720703L11.8912 0.564453C12.0475 0.408203 12.2975 0.408203 12.4225 0.595703ZM10.985 2.00195C12.11 3.43945 12.1412 5.4707 10.985 6.9082C10.86 7.0957 10.61 7.12695 10.4537 6.9707L10.2662 6.7832C10.11 6.6582 10.11 6.43945 10.2037 6.2832C11.0475 5.2207 11.0475 3.68945 10.2037 2.62695C10.11 2.4707 10.11 2.25195 10.2662 2.12695L10.4537 1.93945C10.61 1.7832 10.86 1.81445 10.985 2.00195Z" fill="#00FCDB"/>
</svg>
