<svg width="23" height="23" viewBox="0 0 23 23" fill="none" xmlns="http://www.w3.org/2000/svg">
<path d="M21.7292 19.0952C22.116 19.5248 22.116 20.1694 21.6863 20.5561L20.4832 21.7592C20.0964 22.1889 19.4519 22.1889 19.0222 21.7592L14.7683 17.5053C14.5535 17.2905 14.4675 17.0327 14.4675 16.7748V16.0444C12.9207 17.2475 11.03 17.935 8.96753 17.935C4.02612 17.935 0.0300293 13.9389 0.0300293 8.9975C0.0300293 4.09906 4.02612 0.0600014 8.96753 0.0600014C13.866 0.0600014 17.905 4.09906 17.905 8.9975C17.905 11.103 17.1746 12.9936 16.0144 14.4975H16.7019C16.9597 14.4975 17.2175 14.6264 17.4324 14.7983L21.7292 19.0952ZM8.96753 14.4975C11.9753 14.4975 14.4675 12.0483 14.4675 8.9975C14.4675 5.98969 11.9753 3.4975 8.96753 3.4975C5.91675 3.4975 3.46753 5.98969 3.46753 8.9975C3.46753 12.0483 5.91675 14.4975 8.96753 14.4975Z" fill="white"/>
</svg>
