<svg width="20" height="17" viewBox="0 0 20 17" fill="none" xmlns="http://www.w3.org/2000/svg">
<path d="M17.9297 4.51758C17.9297 4.71289 17.9297 4.86914 17.9297 5.06445C17.9297 10.4941 13.8281 16.7051 6.28906 16.7051C3.94531 16.7051 1.79688 16.041 0 14.8691C0.3125 14.9082 0.625 14.9473 0.976562 14.9473C2.89062 14.9473 4.64844 14.2832 6.05469 13.1895C4.25781 13.1504 2.73438 11.9785 2.22656 10.3379C2.5 10.377 2.73438 10.416 3.00781 10.416C3.35938 10.416 3.75 10.3379 4.0625 10.2598C2.1875 9.86914 0.78125 8.22852 0.78125 6.23633V6.19727C1.32812 6.50977 1.99219 6.66602 2.65625 6.70508C1.52344 5.96289 0.820312 4.71289 0.820312 3.30664C0.820312 2.52539 1.01562 1.82227 1.36719 1.23633C3.39844 3.69727 6.44531 5.33789 9.84375 5.5332C9.76562 5.2207 9.72656 4.9082 9.72656 4.5957C9.72656 2.33008 11.5625 0.494141 13.8281 0.494141C15 0.494141 16.0547 0.962891 16.8359 1.7832C17.7344 1.58789 18.6328 1.23633 19.4141 0.767578C19.1016 1.74414 18.4766 2.52539 17.6172 3.0332C18.4375 2.95508 19.2578 2.7207 19.9609 2.4082C19.4141 3.22852 18.7109 3.93164 17.9297 4.51758Z" fill="#A8ACB7"/>
</svg>
