<svg width="18" height="19" viewBox="0 0 18 19" fill="none" xmlns="http://www.w3.org/2000/svg">
<path d="M9.25 5.08789C11.7109 5.08789 13.7422 7.11914 13.7422 9.58008C13.7422 12.0801 11.7109 14.0723 9.25 14.0723C6.75 14.0723 4.75781 12.0801 4.75781 9.58008C4.75781 7.11914 6.75 5.08789 9.25 5.08789ZM9.25 12.5098C10.8516 12.5098 12.1406 11.2207 12.1406 9.58008C12.1406 7.97852 10.8516 6.68945 9.25 6.68945C7.60938 6.68945 6.32031 7.97852 6.32031 9.58008C6.32031 11.2207 7.64844 12.5098 9.25 12.5098ZM14.9531 4.93164C14.9531 5.51758 14.4844 5.98633 13.8984 5.98633C13.3125 5.98633 12.8438 5.51758 12.8438 4.93164C12.8438 4.3457 13.3125 3.87695 13.8984 3.87695C14.4844 3.87695 14.9531 4.3457 14.9531 4.93164ZM17.9219 5.98633C18 7.43164 18 11.7676 17.9219 13.2129C17.8438 14.6191 17.5312 15.8301 16.5156 16.8848C15.5 17.9004 14.25 18.2129 12.8438 18.291C11.3984 18.3691 7.0625 18.3691 5.61719 18.291C4.21094 18.2129 3 17.9004 1.94531 16.8848C0.929688 15.8301 0.617188 14.6191 0.539062 13.2129C0.460938 11.7676 0.460938 7.43164 0.539062 5.98633C0.617188 4.58008 0.929688 3.33008 1.94531 2.31445C3 1.29883 4.21094 0.986328 5.61719 0.908203C7.0625 0.830078 11.3984 0.830078 12.8438 0.908203C14.25 0.986328 15.5 1.29883 16.5156 2.31445C17.5312 3.33008 17.8438 4.58008 17.9219 5.98633ZM16.0469 14.7363C16.5156 13.6035 16.3984 10.8691 16.3984 9.58008C16.3984 8.33008 16.5156 5.5957 16.0469 4.42383C15.7344 3.68164 15.1484 3.05664 14.4062 2.7832C13.2344 2.31445 10.5 2.43164 9.25 2.43164C7.96094 2.43164 5.22656 2.31445 4.09375 2.7832C3.3125 3.0957 2.72656 3.68164 2.41406 4.42383C1.94531 5.5957 2.0625 8.33008 2.0625 9.58008C2.0625 10.8691 1.94531 13.6035 2.41406 14.7363C2.72656 15.5176 3.3125 16.1035 4.09375 16.416C5.22656 16.8848 7.96094 16.7676 9.25 16.7676C10.5 16.7676 13.2344 16.8848 14.4062 16.416C15.1484 16.1035 15.7734 15.5176 16.0469 14.7363Z" fill="#A8ACB7"/>
</svg>
