<svg width="18" height="19" viewBox="0 0 18 19" fill="none" xmlns="http://www.w3.org/2000/svg">
<path d="M4.40625 18.0801H0.773438V6.40039H4.40625V18.0801ZM2.57031 4.83789C1.4375 4.83789 0.5 3.86133 0.5 2.68945C0.5 1.55664 1.4375 0.619141 2.57031 0.619141C3.74219 0.619141 4.67969 1.55664 4.67969 2.68945C4.67969 3.86133 3.74219 4.83789 2.57031 4.83789ZM17.9609 18.0801H14.3672V12.416C14.3672 11.0488 14.3281 9.33008 12.4531 9.33008C10.5781 9.33008 10.3047 10.7754 10.3047 12.2988V18.0801H6.67188V6.40039H10.1484V8.00195H10.1875C10.6953 7.10352 11.8672 6.12695 13.625 6.12695C17.2969 6.12695 18 8.54883 18 11.6738V18.0801H17.9609Z" fill="#A8ACB7"/>
</svg>
