<svg width="19" height="19" viewBox="0 0 19 19" fill="none" xmlns="http://www.w3.org/2000/svg">
<path d="M8.07344 2.11719L8.93281 1.25781C9.32344 0.90625 9.90938 0.90625 10.2609 1.25781L17.8781 8.83594C18.2297 9.22656 18.2297 9.8125 17.8781 10.1641L10.2609 17.7812C9.90938 18.1328 9.32344 18.1328 8.93281 17.7812L8.07344 16.9219C7.72188 16.5312 7.72188 15.9453 8.07344 15.5547L12.8 11.0625H1.58906C1.04219 11.0625 0.651563 10.6719 0.651563 10.125V8.875C0.651563 8.36719 1.04219 7.9375 1.58906 7.9375H12.8L8.07344 3.48438C7.72188 3.09375 7.68281 2.50781 8.07344 2.11719Z" fill="white"/>
</svg>
