<svg width="14" height="12" viewBox="0 0 14 12" fill="none" xmlns="http://www.w3.org/2000/svg">
<path d="M9.84 4.43994C9.84 6.52588 7.63687 8.18994 4.965 8.18994C4.00406 8.18994 3.09 7.979 2.34 7.604C1.82437 7.90869 1.12125 8.18994 0.277496 8.18994C0.183746 8.18994 0.136871 8.1665 0.0899963 8.09619C0.0665588 8.02588 0.0899963 7.93213 0.136871 7.88525C0.136871 7.88525 0.652496 7.32275 0.980621 6.59619C0.418121 5.98682 0.0899963 5.26025 0.0899963 4.43994C0.0899963 2.37744 2.26968 0.689941 4.965 0.689941C7.63687 0.689941 9.84 2.37744 9.84 4.43994ZM12.6994 9.59619C13.0041 10.3228 13.5197 10.8853 13.5197 10.8853C13.59 10.9321 13.59 11.0259 13.5666 11.0962C13.5431 11.1665 13.4728 11.1899 13.4025 11.1899C12.5353 11.1899 11.8322 10.9087 11.3166 10.604C10.5666 10.979 9.67593 11.1899 8.715 11.1899C6.67593 11.1899 4.94156 10.2524 4.215 8.9165C4.44937 8.93994 4.70718 8.93994 4.965 8.93994C8.05875 8.93994 10.59 6.92432 10.59 4.43994C10.59 4.29932 10.5666 4.13525 10.5431 3.97119C12.3244 4.53369 13.59 5.89307 13.59 7.43994C13.59 8.26025 13.2384 8.98682 12.6994 9.59619Z" fill="#00FCDB"/>
</svg>
