<svg width="11" height="13" viewBox="0 0 11 13" fill="none" xmlns="http://www.w3.org/2000/svg">
<path d="M0 11.8149V5.43994H10.5V11.8149C10.5 12.4478 9.98438 12.9399 9.375 12.9399H1.125C0.492188 12.9399 0 12.4478 0 11.8149ZM7.5 7.22119V8.15869C7.5 8.32275 7.61719 8.43994 7.78125 8.43994H8.71875C8.85938 8.43994 9 8.32275 9 8.15869V7.22119C9 7.08057 8.85938 6.93994 8.71875 6.93994H7.78125C7.61719 6.93994 7.5 7.08057 7.5 7.22119ZM7.5 10.2212V11.1587C7.5 11.3228 7.61719 11.4399 7.78125 11.4399H8.71875C8.85938 11.4399 9 11.3228 9 11.1587V10.2212C9 10.0806 8.85938 9.93994 8.71875 9.93994H7.78125C7.61719 9.93994 7.5 10.0806 7.5 10.2212ZM4.5 7.22119V8.15869C4.5 8.32275 4.61719 8.43994 4.78125 8.43994H5.71875C5.85938 8.43994 6 8.32275 6 8.15869V7.22119C6 7.08057 5.85938 6.93994 5.71875 6.93994H4.78125C4.61719 6.93994 4.5 7.08057 4.5 7.22119ZM4.5 10.2212V11.1587C4.5 11.3228 4.61719 11.4399 4.78125 11.4399H5.71875C5.85938 11.4399 6 11.3228 6 11.1587V10.2212C6 10.0806 5.85938 9.93994 5.71875 9.93994H4.78125C4.61719 9.93994 4.5 10.0806 4.5 10.2212ZM1.5 7.22119V8.15869C1.5 8.32275 1.61719 8.43994 1.78125 8.43994H2.71875C2.85938 8.43994 3 8.32275 3 8.15869V7.22119C3 7.08057 2.85938 6.93994 2.71875 6.93994H1.78125C1.61719 6.93994 1.5 7.08057 1.5 7.22119ZM1.5 10.2212V11.1587C1.5 11.3228 1.61719 11.4399 1.78125 11.4399H2.71875C2.85938 11.4399 3 11.3228 3 11.1587V10.2212C3 10.0806 2.85938 9.93994 2.71875 9.93994H1.78125C1.61719 9.93994 1.5 10.0806 1.5 10.2212ZM9.375 2.43994C9.98438 2.43994 10.5 2.95557 10.5 3.56494V4.68994H0V3.56494C0 2.95557 0.492188 2.43994 1.125 2.43994H2.25V1.31494C2.25 1.12744 2.41406 0.939941 2.625 0.939941H3.375C3.5625 0.939941 3.75 1.12744 3.75 1.31494V2.43994H6.75V1.31494C6.75 1.12744 6.91406 0.939941 7.125 0.939941H7.875C8.0625 0.939941 8.25 1.12744 8.25 1.31494V2.43994H9.375Z" fill="#00FCDB"/>
</svg>
